<mxfile host="app.diagrams.net" agent="Mozilla/5.0" version="24.7.17">
  <diagram name="主程序执行流程" id="c7558073-3199-34d8-9f00-42111426c3f3">
    <mxGraphModel dx="1422" dy="794" grid="1" gridSize="10" guides="1" tooltips="1" connect="1" arrows="1" fold="1" page="1" pageScale="1" pageWidth="850" pageHeight="1100">
      <root>
        <mxCell id="0" />
        <mxCell id="1" parent="0" />
        <mxCell id="2" value="系统启动" style="rounded=1;whiteSpace=wrap;html=1;fillColor=#d5e8d4;strokeColor=#82b366;fontSize=16;fontStyle=1;fontColor=#000000;" vertex="1" parent="1">
          <mxGeometry x="325" y="40" width="200" height="60" as="geometry" />
        </mxCell>
        <mxCell id="3" value="硬件初始化&lt;br&gt;WTST=0 (CPU最高速度)&lt;br&gt;EAXFR=1 (扩展寄存器)&lt;br&gt;CKCON=0 (高速访问XRAM)" style="rounded=0;whiteSpace=wrap;html=1;fillColor=#fff2cc;strokeColor=#d6b656;fontSize=13;fontStyle=1;fontColor=#000000;align=left;" vertex="1" parent="1">
          <mxGeometry x="300" y="140" width="250" height="80" as="geometry" />
        </mxCell>
        <mxCell id="4" value="SYS_Init()" style="rounded=0;whiteSpace=wrap;html=1;fillColor=#dae8fc;strokeColor=#6c8ebf;fontSize=15;fontStyle=1;fontColor=#000000;" vertex="1" parent="1">
          <mxGeometry x="325" y="260" width="200" height="40" as="geometry" />
        </mxCell>
        <mxCell id="5" value="GPIO_config()" style="rounded=0;whiteSpace=wrap;html=1;fillColor=#e1d5e7;strokeColor=#9673a6;fontSize=13;fontStyle=1;fontColor=#000000;" vertex="1" parent="1">
          <mxGeometry x="120" y="340" width="140" height="40" as="geometry" />
        </mxCell>
        <mxCell id="6" value="Timer_config()&lt;br&gt;(1ms中断)" style="rounded=0;whiteSpace=wrap;html=1;fillColor=#e1d5e7;strokeColor=#9673a6;fontSize=13;fontStyle=1;fontColor=#000000;" vertex="1" parent="1">
          <mxGeometry x="280" y="340" width="140" height="40" as="geometry" />
        </mxCell>
        <mxCell id="7" value="ADC_config()" style="rounded=0;whiteSpace=wrap;html=1;fillColor=#e1d5e7;strokeColor=#9673a6;fontSize=13;fontStyle=1;fontColor=#000000;" vertex="1" parent="1">
          <mxGeometry x="440" y="340" width="140" height="40" as="geometry" />
        </mxCell>
        <mxCell id="8" value="PWM_config()" style="rounded=0;whiteSpace=wrap;html=1;fillColor=#e1d5e7;strokeColor=#9673a6;fontSize=13;fontStyle=1;fontColor=#000000;" vertex="1" parent="1">
          <mxGeometry x="600" y="340" width="140" height="40" as="geometry" />
        </mxCell>
        <mxCell id="9" value="UartInit()" style="rounded=0;whiteSpace=wrap;html=1;fillColor=#e1d5e7;strokeColor=#9673a6;fontSize=13;fontStyle=1;fontColor=#000000;" vertex="1" parent="1">
          <mxGeometry x="120" y="400" width="140" height="40" as="geometry" />
        </mxCell>
        <mxCell id="10" value="EA = 1&lt;br&gt;(使能全局中断)" style="rounded=0;whiteSpace=wrap;html=1;fillColor=#e1d5e7;strokeColor=#9673a6;fontSize=13;fontStyle=1;fontColor=#000000;" vertex="1" parent="1">
          <mxGeometry x="280" y="400" width="140" height="40" as="geometry" />
        </mxCell>
        <mxCell id="11" value="APP_config()" style="rounded=0;whiteSpace=wrap;html=1;fillColor=#e1d5e7;strokeColor=#9673a6;fontSize=13;fontStyle=1;fontColor=#000000;" vertex="1" parent="1">
          <mxGeometry x="440" y="400" width="140" height="40" as="geometry" />
        </mxCell>
        <mxCell id="12" value="主循环 while(1)" style="rounded=0;whiteSpace=wrap;html=1;fillColor=#f8cecc;strokeColor=#b85450;fontSize=15;fontStyle=1;fontColor=#000000;" vertex="1" parent="1">
          <mxGeometry x="325" y="480" width="200" height="40" as="geometry" />
        </mxCell>
        <mxCell id="13" value="Task_Pro_Handler_Callback()&lt;br&gt;• 扫描所有任务&lt;br&gt;• 检查Run标志&lt;br&gt;• 执行就绪任务&lt;br&gt;• 清除Run标志" style="rounded=0;whiteSpace=wrap;html=1;fillColor=#ffe6cc;strokeColor=#d79b00;fontSize=13;fontStyle=1;fontColor=#000000;align=left;" vertex="1" parent="1">
          <mxGeometry x="300" y="560" width="250" height="100" as="geometry" />
        </mxCell>
        <mxCell id="14" value="Timer0 中断服务程序&lt;br&gt;(1ms周期)&lt;br&gt;&lt;br&gt;Task_Marks_Handler_Callback()&lt;br&gt;• for (所有任务)&lt;br&gt;• TIMCount--&lt;br&gt;• if (TIMCount==0)&lt;br&gt;&amp;nbsp;&amp;nbsp;- TIMCount=TRITime (重载)&lt;br&gt;&amp;nbsp;&amp;nbsp;- Run=1 (标记就绪)&lt;br&gt;&lt;br&gt;执行时间: &amp;lt;50μs" style="rounded=0;whiteSpace=wrap;html=1;fillColor=#f5f5f5;strokeColor=#666666;strokeWidth=2;fontSize=12;fontStyle=1;fontColor=#000000;align=left;" vertex="1" parent="1">
          <mxGeometry x="600" y="540" width="220" height="180" as="geometry" />
        </mxCell>
        <mxCell id="15" value="" style="edgeStyle=orthogonalEdgeStyle;rounded=0;orthogonalLoop=1;jettySize=auto;html=1;strokeWidth=2;strokeColor=#82b366;" edge="1" parent="1" source="2" target="3">
          <mxGeometry relative="1" as="geometry" />
        </mxCell>
        <mxCell id="16" value="" style="edgeStyle=orthogonalEdgeStyle;rounded=0;orthogonalLoop=1;jettySize=auto;html=1;strokeWidth=2;strokeColor=#82b366;" edge="1" parent="1" source="3" target="4">
          <mxGeometry relative="1" as="geometry" />
        </mxCell>
        <mxCell id="17" value="" style="edgeStyle=orthogonalEdgeStyle;rounded=0;orthogonalLoop=1;jettySize=auto;html=1;strokeWidth=2;dashed=1;strokeColor=#999999;" edge="1" parent="1" source="4" target="5">
          <mxGeometry relative="1" as="geometry" />
        </mxCell>
        <mxCell id="18" value="" style="edgeStyle=orthogonalEdgeStyle;rounded=0;orthogonalLoop=1;jettySize=auto;html=1;strokeWidth=2;dashed=1;strokeColor=#999999;" edge="1" parent="1" source="4" target="6">
          <mxGeometry relative="1" as="geometry" />
        </mxCell>
        <mxCell id="19" value="" style="edgeStyle=orthogonalEdgeStyle;rounded=0;orthogonalLoop=1;jettySize=auto;html=1;strokeWidth=2;dashed=1;strokeColor=#999999;" edge="1" parent="1" source="4" target="7">
          <mxGeometry relative="1" as="geometry" />
        </mxCell>
        <mxCell id="20" value="" style="edgeStyle=orthogonalEdgeStyle;rounded=0;orthogonalLoop=1;jettySize=auto;html=1;strokeWidth=2;dashed=1;strokeColor=#999999;" edge="1" parent="1" source="4" target="8">
          <mxGeometry relative="1" as="geometry" />
        </mxCell>
        <mxCell id="21" value="" style="edgeStyle=orthogonalEdgeStyle;rounded=0;orthogonalLoop=1;jettySize=auto;html=1;strokeWidth=2;strokeColor=#6c8ebf;" edge="1" parent="1" source="11" target="12">
          <mxGeometry relative="1" as="geometry">
            <Array as="points">
              <mxPoint x="510" y="460" />
              <mxPoint x="425" y="460" />
            </Array>
          </mxGeometry>
        </mxCell>
        <mxCell id="22" value="" style="edgeStyle=orthogonalEdgeStyle;rounded=0;orthogonalLoop=1;jettySize=auto;html=1;strokeWidth=2;strokeColor=#b85450;" edge="1" parent="1" source="12" target="13">
          <mxGeometry relative="1" as="geometry" />
        </mxCell>
        <mxCell id="23" value="" style="edgeStyle=orthogonalEdgeStyle;rounded=0;orthogonalLoop=1;jettySize=auto;html=1;strokeWidth=2;strokeColor=#b85450;dashed=1;" edge="1" parent="1" source="13" target="12">
          <mxGeometry relative="1" as="geometry">
            <Array as="points">
              <mxPoint x="260" y="610" />
              <mxPoint x="260" y="500" />
            </Array>
          </mxGeometry>
        </mxCell>
        <mxCell id="24" value="" style="edgeStyle=orthogonalEdgeStyle;rounded=0;orthogonalLoop=1;jettySize=auto;html=1;strokeWidth=3;strokeColor=#666666;startArrow=classic;startFill=1;" edge="1" parent="1" source="14" target="13">
          <mxGeometry relative="1" as="geometry" />
        </mxCell>
        <mxCell id="25" value="中断驱动" style="text;html=1;strokeColor=none;fillColor=none;align=center;verticalAlign=middle;whiteSpace=wrap;fontSize=13;fontStyle=1;fontColor=#000000;" vertex="1" parent="1">
          <mxGeometry x="560" y="590" width="80" height="30" as="geometry" />
        </mxCell>
        <mxCell id="26" value="无限循环" style="text;html=1;strokeColor=none;fillColor=none;align=center;verticalAlign=middle;whiteSpace=wrap;fontSize=13;fontStyle=1;fontColor=#000000;" vertex="1" parent="1">
          <mxGeometry x="180" y="540" width="80" height="30" as="geometry" />
        </mxCell>
      </root>
    </mxGraphModel>
  </diagram>
</mxfile>
